<svg width="600" height="465" viewBox="0 0 600 465" fill="none" xmlns="http://www.w3.org/2000/svg">
<g clip-path="url(#clip0_167_2596)">
<g clip-path="url(#clip1_167_2596)">
<path d="M480.995 454.72C523.072 454.72 557.183 450.419 557.183 445.114C557.183 439.809 523.072 435.508 480.995 435.508C438.917 435.508 404.806 439.809 404.806 445.114C404.806 450.419 438.917 454.72 480.995 454.72Z" fill="#DCDDF2"/>
<path d="M484.8 27.5023C537.248 59.1318 627.936 128.381 581.368 242.7C530.674 367.136 333.409 294.125 309.158 343.98C309.158 343.98 260.983 448.657 148.38 381.855C35.7778 315.053 72.9589 146.57 210.69 46.0563C276.505 -1.97229 407.26 -19.248 484.8 27.5023Z" fill="#EBECF7"/>
<path d="M271.382 356.092C266.386 353.625 264.844 352.535 264.844 350.521C264.844 349.513 265.111 348.752 265.625 348.259C266.324 347.58 267.434 347.457 268.236 347.457H268.38C270.703 347.498 266.406 351.014 268.853 353.42L277.427 353.502L286 344.044L283.451 341.351C281.333 339.089 278.413 336.499 274.055 335.162L274.096 327.082H265.481L261.575 335.409C255.037 337.65 250.822 343.489 250.801 350.747C250.76 360.759 258.388 364.707 263.98 367.585C269.244 370.299 271.382 371.718 271.382 374.678C271.382 375.891 271.094 376.796 270.539 377.331C269.717 378.112 268.257 378.276 267.188 378.276H267.044C264.206 378.235 261.451 376.94 258.326 374.247L254.893 371.266L246.504 371.307L247.615 382.08L250.123 384.424C253.227 387.323 257.257 389.502 261.41 390.592L261.369 398.59L273.849 398.651L273.89 390.345C280.983 388.104 285.404 382.101 285.445 374.308C285.445 363.042 277.324 359.012 271.382 356.092Z" fill="#E38549"/>
<path d="M262.788 356.092C257.792 353.625 256.25 352.535 256.25 350.521C256.25 349.513 256.517 348.752 257.031 348.259C257.73 347.58 258.84 347.457 259.642 347.457H259.786C262.109 347.498 263.405 348.177 265.851 350.562L268.832 353.481L277.406 344.024L274.857 341.33C272.739 339.069 269.819 336.478 265.461 335.142L265.522 327.062L253.042 327L253.001 335.368C246.443 337.65 242.228 343.489 242.207 350.747C242.166 360.759 249.794 364.707 255.386 367.585C260.65 370.299 262.788 371.718 262.788 374.678C262.788 375.891 262.5 376.796 261.945 377.331C261.122 378.112 259.663 378.276 258.594 378.276H258.45C255.612 378.235 252.857 376.94 249.732 374.247L246.299 371.266L239 382.08L241.508 384.424C244.613 387.323 248.643 389.502 252.796 390.592L252.755 398.59L265.234 398.651L265.276 390.345C272.369 388.104 276.789 382.101 276.83 374.308C276.851 363.042 268.73 359.012 262.788 356.092Z" fill="#F79F59"/>
<path fill-rule="evenodd" clip-rule="evenodd" d="M276.964 344.679C277.17 344.867 277.184 345.186 276.997 345.391L269.513 353.594C269.419 353.697 269.287 353.757 269.147 353.759C269.008 353.76 268.874 353.704 268.777 353.604C268.777 353.604 268.777 353.604 268.777 353.603L268.777 353.603L268.776 353.602L268.772 353.598L268.755 353.581C268.74 353.565 268.716 353.541 268.686 353.51C268.624 353.447 268.533 353.355 268.415 353.239C268.178 353.007 267.836 352.678 267.412 352.294C266.564 351.524 265.399 350.538 264.12 349.661C262.834 348.78 261.466 348.031 260.211 347.706C258.96 347.382 257.908 347.495 257.121 348.202L257.118 348.204C256.74 348.539 256.507 349.146 256.507 350.089C256.507 350.523 256.589 350.887 256.768 351.228C256.95 351.575 257.248 351.928 257.719 352.316C258.676 353.106 260.257 353.971 262.764 355.209L262.765 355.209L262.775 355.214C265.734 356.678 269.32 358.453 272.153 361.298C275.01 364.168 277.088 368.114 277.067 373.878L277.067 373.879C277.025 381.755 272.613 387.885 265.51 390.279L265.471 398.222C265.47 398.5 265.243 398.725 264.965 398.723C264.687 398.722 264.462 398.495 264.464 398.217L264.505 389.911C264.506 389.692 264.648 389.499 264.857 389.433C271.735 387.26 276.019 381.454 276.059 373.874M269.125 352.525L276.253 344.712C276.44 344.507 276.759 344.492 276.964 344.679" fill="#A36136"/>
<path d="M252.013 343.902C253.353 342.083 253.349 339.806 252.005 338.816C250.661 337.826 248.486 338.499 247.146 340.318C245.806 342.137 245.809 344.415 247.153 345.405C248.497 346.394 250.673 345.722 252.013 343.902Z" fill="#FFCCAB"/>
<path fill-rule="evenodd" clip-rule="evenodd" d="M247.039 349.122C246.443 349.945 245.415 350.212 244.777 349.719C244.119 349.225 244.078 348.177 244.675 347.354C245.271 346.532 246.299 346.265 246.936 346.758C247.594 347.252 247.635 348.321 247.039 349.122Z" fill="#FFCCAB"/>
<path d="M560.981 37.6627C554.846 33.9373 544.875 40.2924 538.337 44.0178L550.682 29.4449C551.96 27.9839 554.517 25.6099 552.873 23.3454C550.828 21.2271 548.271 24.4777 546.007 26.4499C540.747 30.9424 535.707 35.6539 530.849 40.5846C531.872 33.1338 534.575 10.7448 522.778 15.712C519.198 17.4286 515.984 21.2271 512.953 27.29C510.761 31.6728 509.227 36.7861 508.46 42.4108C507.84 46.9397 508.059 51.5417 508.278 56.0341C508.534 61.6953 508.789 67.0643 507.511 72.2506C505.246 80.7241 499.257 88.1019 494.728 95.6258L486.838 108.007C486.144 109.322 484.574 111.733 484.136 111.66C483.844 110.929 483.88 108.592 485.195 102.09C486.911 92.083 488.08 81.4911 483.734 72.068C482.821 70.1688 479.497 63.9598 473.909 64.0328C467.956 64.1059 466.823 70.8627 466.166 74.8803C463.427 91.0238 464.961 108.519 471.754 123.603C473.106 126.379 474.53 129.301 473.58 131.748C469.782 141.682 465.107 151.251 460.724 160.894C459.373 146.503 456.706 128.534 449.438 124.589C447.32 123.457 445.019 123.53 442.535 124.845C434.025 129.374 436.034 143.399 437.02 150.156C438.919 162.464 442.9 176.16 449.694 187.921C450.936 189.893 452.506 192.34 452.433 193.911C452.397 195.408 451.885 197.052 451.52 198.549C450.278 208.192 450.205 217.688 449.548 227.367C447.429 218.893 443.156 209.762 439.248 202.384C437.422 198.915 435.559 195.372 432.674 192.56C431.176 191.099 423.433 184.05 417.918 187.154C411.855 190.733 416.786 201.544 418.904 206.804C424.164 220.646 435.924 237.52 447.247 251.801C447.831 252.531 448.598 253.445 448.708 254.102C448.781 254.504 448.562 255.271 448.379 255.892C447.685 258.485 447.502 260.895 447.064 263.744L448.635 272.583C448.89 274.007 450.972 273.898 451.082 272.473C451.374 268.638 451.703 264.73 452.031 260.859C460.249 250.815 468.869 241.501 477.269 231.603C484.063 223.568 490.199 215.533 490.272 205.562C490.272 198.513 486.948 192.998 479.57 195.847C468.796 200.777 459.08 221.742 454.405 232.407C454.296 229.193 455.063 217.871 456.049 207.644C456.268 205.124 456.487 202.531 456.487 199.937C456.487 198.403 456.414 196.614 457.437 195.774C459.19 194.349 462.039 193.473 464.084 192.267C476.904 183.392 490.126 169.294 495.969 158.921C497.869 155.634 501.886 147.526 498.526 143.107C495.531 138.87 489.286 140.294 486.254 142.96C470.439 156.292 473.982 159.323 462.55 173.933C465.399 164.144 471.06 152.566 475.041 142.814C476.721 138.797 477.05 133.683 480.776 131.236C485.049 128.388 490.126 126.379 494.728 124.078L509.374 116.81C514.049 114.509 518.833 112.39 523.143 109.322C528.183 105.706 530.813 101.944 530.959 98.1459C531.142 93.2517 526.759 89.9646 522.522 89.3802C517.591 88.6498 512.77 91.1699 508.899 93.2152C505.539 94.9684 502.251 96.8676 499.037 98.8764C501.265 95.224 503.566 91.4986 505.904 87.9193C507.365 85.6914 508.826 83.573 510.944 82.1485C513.062 80.7241 515.802 80.0302 518.285 79.1171C529.023 75.2456 538.994 69.5479 547.906 62.2066C559.265 52.6739 568.907 42.9586 560.981 37.6627Z" fill="#D1D4ED"/>
<path d="M587.206 168.673C583.444 163.779 573.473 165.751 567.045 166.664L581.508 158.848C582.969 158.081 585.782 156.949 585.197 154.648C584.211 152.311 581.18 154.137 578.696 154.977C573.071 156.949 567.556 159.14 562.114 161.551C565.255 155.89 574.423 138.797 563.429 139.052C560.032 139.308 556.27 141.353 551.924 145.261C548.783 148.11 545.971 151.69 543.56 155.999C541.624 159.433 540.383 163.195 539.141 166.847C537.57 171.485 536.109 175.832 533.443 179.63C528.987 185.693 521.865 189.747 515.875 194.386L505.685 201.837C504.699 202.677 502.727 204.101 502.398 203.918C502.398 203.225 503.165 201.398 506.269 196.577C510.762 189.09 515.035 180.982 514.487 172.033C514.378 170.207 513.611 164.181 509.118 162.501C504.334 160.674 501.302 165.751 499.513 168.783C492.281 180.872 488.008 195.408 488.702 209.616C488.921 212.282 489.14 215.022 487.642 216.702C481.47 223.495 474.75 229.704 468.212 236.059C471.645 224.08 475.115 208.849 470.513 203.407C469.161 201.837 467.299 201.143 464.925 201.435C456.707 202.421 453.895 214.291 452.543 219.989C450.206 230.471 449.11 242.707 450.9 254.248C451.301 256.22 451.776 258.667 451.228 259.909C450.753 261.115 449.804 262.247 449.073 263.343C445.056 270.684 442.024 278.281 438.482 285.841C439.431 278.354 438.883 269.734 438.043 262.576C437.641 259.215 437.276 255.782 435.852 252.641C435.121 250.998 431.104 242.889 425.735 243.693C419.745 244.679 420.293 254.869 420.366 259.763C420.256 272.51 424.42 289.749 428.985 304.724C429.241 305.491 429.533 306.477 429.424 307.025C429.351 307.354 428.949 307.901 428.584 308.34C427.196 310.202 426.283 312.102 425.041 314.22L423.543 321.817C423.288 323.059 425.004 323.607 425.552 322.474C426.977 319.516 428.474 316.448 429.972 313.453C439.723 307.974 449.548 303.19 459.373 297.894C467.335 293.584 474.75 289.055 477.964 281.093C480.155 275.432 479.242 269.99 472.412 269.953C462.222 270.538 447.868 284.307 440.783 291.393C441.696 288.763 445.859 279.961 449.84 272.035C450.79 270.099 451.776 268.054 452.616 266.009C453.091 264.767 453.602 263.306 454.698 262.977C456.524 262.393 459.117 262.576 461.126 262.21C474.202 259.106 489.213 251.947 497.139 245.446C499.695 243.401 505.429 238.141 504.115 233.539C503.019 229.193 497.577 228.389 494.326 229.595C477.489 235.329 479.352 238.908 465.619 247.016C470.988 240.077 479.132 232.517 485.378 225.979C488.008 223.276 489.834 219.295 493.596 218.491C497.906 217.542 502.617 217.505 507.036 217.14L521.062 215.898C525.517 215.496 530.046 215.35 534.429 214.218C539.616 212.903 542.903 210.712 544.181 207.717C545.861 203.845 543.378 199.864 540.163 198.038C536.401 195.92 531.8 196.431 528.038 196.833C524.787 197.198 521.573 197.673 518.322 198.294C521.244 196.066 524.239 193.801 527.271 191.647C529.133 190.295 530.996 189.053 533.114 188.579C535.233 188.104 537.68 188.396 539.944 188.469C549.769 188.725 559.557 187.264 569.017 184.196C581.106 180.178 591.917 175.43 587.206 168.673ZM454.077 255.746C454.041 255.746 454.041 255.746 454.077 255.746C454.041 255.746 454.077 255.746 454.077 255.746Z" fill="#D1D4ED"/>
<path d="M315.119 452.751C414.596 452.751 495.239 446.323 495.239 438.394C495.239 430.464 414.596 424.036 315.119 424.036C215.642 424.036 135 430.464 135 438.394C135 446.323 215.642 452.751 315.119 452.751Z" fill="#DCDDF2"/>
<path d="M65.7568 209.354C65.5742 210.194 65.3915 211.107 65.6837 211.947C65.9759 212.787 66.9621 213.408 67.7656 213.006C67.4369 213.81 67.7656 214.832 68.4961 215.307C69.2265 215.782 70.2492 215.709 70.9066 215.124C71.6736 214.394 71.7101 213.152 71.418 212.129C70.9431 210.559 69.7379 209.208 68.2404 208.514C67.7656 208.295 67.1812 208.148 66.6699 208.294C66.1585 208.441 65.7568 209.025 65.8664 209.536C65.9029 209.5 65.9759 209.427 65.7568 209.354Z" fill="#663A24"/>
<path d="M63.9307 447.086C92.9978 447.086 116.561 445.337 116.561 443.178C116.561 441.02 92.9978 439.27 63.9307 439.27C34.8636 439.27 11.3 441.02 11.3 443.178C11.3 445.337 34.8636 447.086 63.9307 447.086Z" fill="#DCDDF2"/>
<path fill-rule="evenodd" clip-rule="evenodd" d="M77.7365 436.312C77.7365 436.312 69.1535 388.685 77.773 369.875L70.7605 305.301L100.929 307.383L86.137 436.823L77.7365 436.312Z" fill="#E5A592"/>
<path fill-rule="evenodd" clip-rule="evenodd" d="M86.3926 434.449L90.8485 438.795C92.0538 439.855 98.5185 441.973 98.5185 441.973C99.2124 443.324 97.9706 444.018 96.9114 444.201L77.9922 443.799C77.9922 443.799 73.6093 442.886 77.2252 434.486C80.7314 435.983 85.5891 437.079 86.3926 434.449Z" fill="#384454"/>
<path fill-rule="evenodd" clip-rule="evenodd" d="M102.975 317.391L90.5565 426.962H68.5327C68.5327 426.962 70.2859 417.429 69.9571 414.398C69.6284 411.366 67.9483 382.695 74.2669 369.473L72.0755 315.711L102.975 317.391Z" fill="#A7C5E2"/>
<path fill-rule="evenodd" clip-rule="evenodd" d="M74.1207 369.51L71.9293 315.747L82.4116 316.332L84.0186 355.704C84.3108 363.045 83.5438 370.423 81.9368 377.655C78.7957 391.972 80.001 411.951 80.2567 414.434C80.5854 417.466 78.8322 426.998 78.8322 426.998H68.3865C68.3865 426.998 70.1396 417.466 69.8109 414.434C69.4822 411.403 67.8021 382.695 74.1207 369.51Z" fill="#9BB8D5"/>
<path fill-rule="evenodd" clip-rule="evenodd" d="M57.7948 273.27L98.9569 276.411C105.641 278.858 102.975 317.464 102.975 317.464L75.9105 318.706C63.3463 318.45 48.4812 328.311 46.9107 307.347C45.121 283.424 57.7948 273.27 57.7948 273.27Z" fill="#A7C5E2"/>
<path d="M29.3061 421.154C29.3426 421.191 29.3792 421.264 29.7809 421.775C28.9774 426.962 29.7809 429.044 29.0139 434.23C31.2053 434.559 31.8628 438.028 34.0542 438.321C34.6751 438.394 34.3464 435.435 34.9308 435.07L41.2493 421.374L29.3061 421.154Z" fill="#E5A592"/>
<path d="M81.3158 291.678C69.2265 336.894 57.1371 382.111 43.2581 427.948C36.7204 426.889 24.3389 427.254 24.3389 427.254C24.3389 427.254 26.6399 419.146 26.859 417.977C31.7532 390.365 29.4522 386.42 35.6612 365.054C42.0163 334.228 44.646 313.081 51.9142 288.026C62.9079 288.902 70.0665 291.057 80.9871 292.226C81.1332 292.262 81.3158 292.262 81.4619 292.299C81.6445 292.409 81.7541 292.555 81.3158 291.678Z" fill="#A7C5E2"/>
<path fill-rule="evenodd" clip-rule="evenodd" d="M35.3327 433.573C35.3327 433.573 36.2093 439.015 35.8441 442.411C35.771 442.996 35.3693 443.617 34.7849 444.091C34.164 444.566 33.4335 444.822 32.8126 444.822C31.4247 444.785 29.8542 444.712 28.868 444.676C28.2471 444.639 27.7723 444.457 27.4436 444.091C27.261 443.872 27.0053 443.617 26.7862 443.324C25.6905 442.046 26.3479 440.622 27.261 438.649C28.1741 436.604 28.9046 434.23 28.9046 434.23C32.5569 431.819 35.3327 433.573 35.3327 433.573Z" fill="#384454"/>
<path fill-rule="evenodd" clip-rule="evenodd" d="M111.302 269.873C114.735 275.279 115.904 276.156 121.638 275.827L143.004 268.741L144.611 263.299L118.935 264.358L111.302 269.873Z" fill="#E5A592"/>
<path fill-rule="evenodd" clip-rule="evenodd" d="M107.321 273.453C110.9 278.931 118.095 276.849 123.428 276.375L135.298 273.051L135.115 263.08L108.636 264.066L107.321 273.453Z" fill="#6087D4"/>
<path fill-rule="evenodd" clip-rule="evenodd" d="M114.333 255.447C108.27 245.512 97.5689 230.939 97.5689 230.939C94.647 225.753 88.8763 223.196 85.4796 225.534C84.1282 226.447 84.1647 228.748 85.5161 230.683L92.4921 267.28C99.7238 268.887 106.846 275.096 112.945 268.193C116.233 264.431 116.707 259.355 114.333 255.447Z" fill="#6087D4"/>
<path fill-rule="evenodd" clip-rule="evenodd" d="M90.8121 225.205L81.8273 222.137L69.7014 221.297L50.2343 227.835C45.0479 230.391 46.655 235.286 48.6273 240.764L47.1298 258.332C43.1122 271.663 43.1487 281.488 43.8427 295.221C65.7203 303.329 101.842 301.795 108.745 291.751C107.613 264.322 101.477 242.846 90.8121 225.205Z" fill="#6087D4"/>
<path d="M81.8637 222.137C81.8637 222.137 86.7213 234.153 78.467 234.665C70.2126 235.176 65.7202 222.721 65.7202 222.721L71.7466 220.055L81.8637 222.137Z" fill="#E5A592"/>
<path fill-rule="evenodd" clip-rule="evenodd" d="M93.4992 239.637C93.7382 239.548 94.0044 239.669 94.0936 239.908L100.558 257.221C100.648 257.46 100.526 257.726 100.287 257.815C100.048 257.904 99.782 257.783 99.6927 257.544L93.228 240.232C93.1388 239.993 93.2602 239.727 93.4992 239.637Z" fill="#626DB8"/>
<path fill-rule="evenodd" clip-rule="evenodd" d="M29.3427 275.644C28.32 281.232 29.1601 282.73 35.4422 284.629L68.9709 291.276L67.0717 284.848L41.3955 273.27L29.3427 275.644Z" fill="#E5A592"/>
<path fill-rule="evenodd" clip-rule="evenodd" d="M51.476 227.689C51.476 227.689 45.4861 227.616 42.0894 235.651C38.6927 243.686 28.2469 266.55 27.9182 268.047C27.5895 269.545 20.9057 281.707 32.5932 284.848C46.5818 288.61 60.5338 292.737 60.5338 292.737L63.8575 279.26L44.1347 272.613C44.1347 272.613 57.685 233.934 57.0641 231.414C56.4797 228.857 51.476 227.689 51.476 227.689Z" fill="#6087D4"/>
<path fill-rule="evenodd" clip-rule="evenodd" d="M53.4127 245.22C53.6546 245.301 53.7849 245.563 53.7038 245.805L45.7957 269.386L62.1303 277.642C62.358 277.758 62.4493 278.035 62.3342 278.263C62.2191 278.491 61.9412 278.582 61.7135 278.467L45.0222 270.03C44.8174 269.927 44.7196 269.688 44.7926 269.471L52.8278 245.511C52.9089 245.269 53.1708 245.139 53.4127 245.22Z" fill="#626DB8"/>
<path d="M142.055 268.668L147.899 270.239C149.067 270.567 150.309 270.458 151.405 269.91L155.824 267.792C157.358 267.061 157.687 265.016 156.445 263.81L148.994 262.24C147.351 261.911 145.525 262.203 143.881 263.08L141.142 264.541L142.055 268.668Z" fill="#E5A592"/>
<path d="M67.0354 284.848L72.3313 287.368C73.3905 287.88 74.2305 288.72 74.7053 289.815L76.6411 294.162C77.2985 295.659 76.2759 297.376 74.6323 297.485L68.1676 293.979C66.7432 293.212 65.5744 291.824 64.917 290.144L63.8213 287.332L67.0354 284.848Z" fill="#E5A592"/>
<path fill-rule="evenodd" clip-rule="evenodd" d="M78.6132 214.613C78.6132 214.613 78.7228 221.37 78.8324 226.995C78.8689 228.492 78.1019 229.88 76.8236 230.647C75.5452 231.414 73.9747 231.414 72.6964 230.647C72.2946 230.391 71.8563 230.172 71.4911 229.917C69.738 228.894 68.7153 226.922 68.8979 224.876C69.3362 219.653 70.1397 210.121 70.1397 210.121L78.6132 214.613Z" fill="#E5A592"/>
<path fill-rule="evenodd" clip-rule="evenodd" d="M79.161 216.293L78.7593 222.758L74.0842 216.841L79.161 216.293Z" fill="#CB816B"/>
<path fill-rule="evenodd" clip-rule="evenodd" d="M81.6446 203.875C82.0464 203.802 82.4116 203.583 82.6307 203.254C82.8499 202.926 82.9594 202.524 82.8864 202.122C82.8499 201.866 82.7403 201.611 82.5212 201.428C82.2655 201.209 81.8637 201.172 81.4985 201.209C81.0602 201.245 80.5489 201.318 80.3297 201.72C80.1106 202.085 80.2567 202.597 80.4393 202.999C80.5489 203.254 80.7315 203.473 80.9506 203.656C81.2063 203.766 81.4985 203.875 81.6446 203.875Z" fill="#663A24"/>
<path fill-rule="evenodd" clip-rule="evenodd" d="M68.4961 206.761C67.9482 204.861 69.0439 202.852 70.9066 202.305C72.9154 201.72 75.4721 200.99 77.4809 200.405C79.3801 199.858 81.0602 201.063 81.9002 202.852C82.8864 204.971 83.8725 209.682 84.1647 213.189C84.3473 215.161 83.3612 217.316 81.4985 217.864C79.4897 218.448 72.9154 218.265 71.2719 214.796C70.03 212.166 69.3361 209.536 68.4961 206.761Z" fill="#E5A592"/>
<path d="M69.5187 210.669C70.3223 210.997 71.2354 210.194 71.3814 209.317C71.5275 208.441 71.1988 207.564 70.9797 206.724C70.7605 205.884 70.6875 204.861 71.2354 204.204C71.6371 203.693 72.3311 203.473 72.952 203.327C75.6912 202.597 78.5401 202.159 81.3524 202.049C81.6446 201.099 81.1333 200.04 80.3663 199.419C79.5628 198.835 78.5401 198.616 77.5539 198.543C74.9608 198.324 72.2945 198.908 69.9935 200.15C68.8248 200.771 67.7291 201.611 67.2178 202.852C66.6699 204.167 66.9256 205.665 67.3638 207.016C67.8021 208.368 68.4596 209.646 68.6787 211.07C69.0074 210.997 69.3726 210.888 69.6648 210.705C69.7014 210.705 69.7014 210.742 69.5187 210.669Z" fill="#663A24"/>
<path d="M81.4987 201.574C82.1561 201.72 82.3753 200.844 82.2292 200.259C82.0831 199.675 81.8639 198.725 81.1334 199.2C80.9143 197.52 79.6725 196.68 78.5403 197.593C78.3211 197.191 78.2481 197.118 77.9194 196.79C77.5907 196.461 77.1158 196.278 76.7141 196.424C76.3123 196.57 76.0201 197.082 76.2028 197.557C76.0201 196.899 75.4358 196.424 74.8149 196.388C74.1939 196.351 73.6096 196.79 73.3904 197.41C73.0617 196.972 72.4773 196.753 71.966 196.826C71.4547 196.936 71.0164 197.337 70.8338 197.849C70.2129 197.557 69.4459 197.63 68.898 198.068C68.3502 198.47 67.9849 199.2 67.9484 199.967C67.364 199.784 66.7066 200.004 66.3048 200.551C65.9396 201.099 65.9031 201.866 66.1953 202.487C65.5378 202.633 65.063 203.437 65.1361 204.204C65.2456 204.971 65.9031 205.592 66.597 205.592C66.1222 205.994 65.9031 206.834 66.2683 207.381C66.6336 207.929 67.5832 207.856 67.6927 207.199C67.364 207.528 66.7796 209.171 67.2179 209.244C67.6562 209.281 68.9711 207.929 69.1172 207.454C69.2633 206.98 69.2633 206.468 69.2998 205.957C69.4459 203.912 70.5781 202.012 72.2947 201.209C73.7922 200.734 75.2897 200.259 76.8602 200.15C78.4672 200.04 81.4622 201.428 81.4987 201.574Z" fill="#663A24"/>
<path d="M66.0855 203.802C65.5012 204.167 64.8802 204.569 64.5881 205.19C64.2959 205.811 64.4785 206.724 65.1359 206.943C64.515 207.199 64.1132 207.966 64.2228 208.623C64.3324 209.281 64.9898 209.828 65.6472 209.865C66.4873 209.902 67.2178 209.244 67.6195 208.477C68.2404 207.345 68.35 205.92 67.9117 204.679C67.7656 204.277 67.5465 203.875 67.1447 203.693C66.7795 203.473 66.2316 203.583 65.976 203.948C66.0855 203.948 66.1586 203.948 66.0855 203.802Z" fill="#663A24"/>
<path fill-rule="evenodd" clip-rule="evenodd" d="M68.4959 213.225C69.4456 214.54 71.0891 214.978 72.1848 214.175C73.244 213.371 73.3536 211.655 72.404 210.34C71.4544 209.025 69.8108 208.587 68.7151 209.39C67.6559 210.194 67.5463 211.874 68.4959 213.225Z" fill="#E5A592"/>
<path fill-rule="evenodd" clip-rule="evenodd" d="M82.4845 211.728L78.613 212.86C78.613 212.86 79.4531 215.526 81.2427 214.759C83.0689 213.956 82.4845 211.728 82.4845 211.728Z" fill="white"/>
<path fill-rule="evenodd" clip-rule="evenodd" d="M495.202 245.256C497.028 244.672 498.708 246.498 499.731 248.105C501.813 251.356 501.594 255.045 503.493 258.368C505.465 261.729 507.584 266.294 505.137 269.654C499.695 275.096 495.02 270.969 491.221 270.093C488.299 269.545 488.043 271.261 485.158 271.919C480.52 273.453 474.676 270.677 474.128 264.797C473.763 260.669 477.671 258.405 479.387 256.104C481.031 253.876 480.994 252.561 482.455 250.187C484.939 244.782 492.719 241.275 495.202 245.256Z" fill="#663A24"/>
<path d="M422.482 439.892L543.412 439.892L543.412 363.192L422.482 363.192L422.482 439.892Z" fill="#86B8E9"/>
<path fill-rule="evenodd" clip-rule="evenodd" d="M467.225 344.966C469.124 346.135 469.562 348.728 468.284 351.212C466.056 355.631 454.99 362.79 460.578 377.691C464.632 388.502 466.275 422.396 464.632 438.649C464.376 441.023 465.107 439.562 462.733 440.658C459.811 441.973 459.117 446.319 458.277 443.872L433.148 369.693C432.418 367.465 432.527 364.872 433.368 362.205C435.011 356.982 439.321 352.673 444.434 350.7L455.391 346.427C455.391 346.427 456.998 352.234 459.044 353.513L467.225 344.966Z" fill="#E5A592"/>
<path fill-rule="evenodd" clip-rule="evenodd" d="M486.29 349.933C488.335 351.102 489.102 353.549 488.189 355.887C486.582 360.05 475.881 367.099 484.208 380.905C493.412 396.172 496.188 420.205 496.809 435.618C496.882 437.846 492.134 444.055 491.002 441.717L456.048 372.724C455.026 370.606 454.77 368.122 455.245 365.602C456.158 360.671 459.81 356.654 464.595 354.901L474.822 351.066C474.822 351.066 477.232 356.617 479.387 357.859L486.29 349.933Z" fill="#E5A592"/>
<path fill-rule="evenodd" clip-rule="evenodd" d="M484.099 331.452C484.099 331.452 451.556 343.98 442.718 349.933C433.915 355.887 429.788 364.798 431.98 372.03C434.171 379.262 452.396 434.668 452.396 434.668C452.396 434.668 462.221 434.267 469.015 432.915L464.632 393.579C464.632 393.579 483.734 433.28 484.099 433.317C484.464 433.353 496.736 430.651 499.366 427.035C499.366 427.035 497.649 403.039 484.099 378.933C481.652 374.623 483.186 371.519 485.779 370.569C489.03 369.4 500.352 367.866 507.292 366.296C512.916 365.018 518.687 364.287 523.435 360.963C527.708 358.005 530.046 353.914 530.375 347.815C531.068 334.52 528 323.161 528 323.161L484.099 331.452Z" fill="#A7C5E2"/>
<path fill-rule="evenodd" clip-rule="evenodd" d="M496.293 339.092C496.37 339.331 496.239 339.587 496 339.665C474.776 346.545 464.331 352.311 459.244 356.785C456.707 359.017 455.522 360.911 454.984 362.444C454.448 363.972 454.541 365.184 454.639 366.102C454.733 366.987 455.257 368.88 456.023 371.281C456.781 373.662 457.761 376.492 458.742 379.222C459.722 381.951 460.702 384.577 461.462 386.546C461.842 387.531 462.167 388.35 462.408 388.935C462.528 389.228 462.627 389.459 462.701 389.622C462.738 389.704 462.766 389.764 462.787 389.805C462.795 389.819 462.8 389.829 462.804 389.835C462.944 390.02 462.923 390.285 462.748 390.445C462.563 390.615 462.275 390.602 462.105 390.417C462.045 390.351 462 390.263 461.979 390.223L461.978 390.221C461.947 390.161 461.911 390.085 461.871 389.997C461.792 389.82 461.688 389.578 461.566 389.282C461.321 388.688 460.994 387.862 460.613 386.874C459.851 384.897 458.868 382.265 457.885 379.53C456.903 376.795 455.919 373.953 455.155 371.557C454.398 369.181 453.84 367.194 453.734 366.198C453.631 365.235 453.522 363.862 454.125 362.143C454.727 360.427 456.02 358.409 458.643 356.102C463.874 351.5 474.467 345.688 495.719 338.799C495.958 338.721 496.215 338.852 496.293 339.092Z" fill="#317AC1"/>
<path fill-rule="evenodd" clip-rule="evenodd" d="M453.565 309.027L468.431 282.693L479.57 294.454L463.39 314.213L453.565 309.027Z" fill="#C95836"/>
<path fill-rule="evenodd" clip-rule="evenodd" d="M463.354 314.177C456.743 321.445 450.716 317.683 447.429 313.154L429.606 288.939L435.997 287.186L453.383 303.658L463.354 314.177Z" fill="#E5A592"/>
<path fill-rule="evenodd" clip-rule="evenodd" d="M488.154 277.982C487.861 278.931 483.917 303.22 472.083 308.442C466.495 310.926 451.593 304.717 453.018 297.778C453.931 293.176 459.957 289.341 461.784 286.236C472.521 268.084 479.205 267.755 479.205 267.755L488.154 277.982Z" fill="#A7C5E2"/>
<path d="M435.997 287.186L431.103 284.045C430.117 283.424 428.948 283.168 427.816 283.314L423.177 283.972C421.57 284.191 420.657 285.98 421.461 287.405L427.816 290.984C429.204 291.788 430.994 292.043 432.747 291.678L435.669 291.13L435.997 287.186Z" fill="#E5A592"/>
<path fill-rule="evenodd" clip-rule="evenodd" d="M479.059 267.792L485.195 265.746L496.919 264.797L512.587 269.253C517.701 271.627 519.783 277.909 518.285 283.387L515.948 300.992C520.696 314.067 531.653 321.883 531.982 335.47C511.82 344.163 474.932 346.062 467.663 336.31C466.787 309.136 470.183 285.579 479.059 267.792Z" fill="#A7C5E2"/>
<path d="M485.231 265.746C485.231 265.746 480.775 277.909 488.957 278.201C497.138 278.493 501.338 266.111 501.338 266.111L495.239 263.518L485.231 265.746Z" fill="#E5A592"/>
<path fill-rule="evenodd" clip-rule="evenodd" d="M526.576 320.422L511.966 293.906L527.818 290.619L536.108 314.761L526.576 320.422Z" fill="#E5A592"/>
<path fill-rule="evenodd" clip-rule="evenodd" d="M535.634 313.592C538.373 318.486 536.401 325.316 531.105 329.115L504.479 340.656L501.959 335.178L523.216 321.116L535.634 313.592Z" fill="#E5A592"/>
<path fill-rule="evenodd" clip-rule="evenodd" d="M516.094 272.138C516.751 272.868 530.046 285.542 533.771 303.621C535.013 309.611 520.221 317.208 514.962 312.424C511.492 309.246 511.346 302.087 509.593 298.946C501.704 284.958 501.85 273.416 501.85 273.416L516.094 272.138Z" fill="#A7C5E2"/>
<path fill-rule="evenodd" clip-rule="evenodd" d="M505.693 286.256C506.005 286.139 506.352 286.298 506.469 286.61L514.467 308.049C514.584 308.361 514.425 308.708 514.113 308.825C513.801 308.941 513.454 308.782 513.338 308.471L505.339 287.031C505.223 286.719 505.381 286.372 505.693 286.256Z" fill="#317AC1"/>
<path fill-rule="evenodd" clip-rule="evenodd" d="M471.805 284.55C472.13 284.618 472.339 284.938 472.271 285.264L467.742 306.922C467.674 307.248 467.355 307.457 467.029 307.389C466.703 307.321 466.494 307.001 466.562 306.675L471.091 285.017C471.159 284.691 471.479 284.482 471.805 284.55Z" fill="#317AC1"/>
<path fill-rule="evenodd" clip-rule="evenodd" d="M457.072 440.147L452.762 445.479C451.922 446.758 446.443 450.154 446.443 450.154C446.151 451.542 447.466 451.907 448.489 451.834L465.91 447.159C465.91 447.159 469.745 445.333 464.23 438.394C461.418 440.585 458.496 442.375 457.072 440.147Z" fill="#384454"/>
<path fill-rule="evenodd" clip-rule="evenodd" d="M489.87 439.635C489.87 439.635 490.417 445.114 491.623 449.278C491.842 449.972 492.426 450.629 493.193 451.031C495.056 452.017 498.234 453.624 501.155 448.438C501.338 448.109 501.484 447.671 501.703 447.232C502.58 445.224 501.521 443.69 500.06 441.462C498.562 439.161 497.174 436.458 497.174 436.458C492.609 434.741 489.87 439.635 489.87 439.635Z" fill="#384454"/>
<path fill-rule="evenodd" clip-rule="evenodd" d="M488.738 243.649C488.738 243.649 480.155 243.649 480.702 253.292C481.25 262.934 493.267 252.999 493.267 252.999L488.738 243.649Z" fill="#663A24"/>
<path fill-rule="evenodd" clip-rule="evenodd" d="M486.035 256.725C486.035 256.725 487.058 262.642 487.934 267.536C488.154 268.851 489.03 269.91 490.235 270.385C491.441 270.823 492.756 270.567 493.742 269.727C494.07 269.435 494.363 269.179 494.655 268.924C495.97 267.755 496.481 265.892 496.006 264.139C494.764 259.647 492.463 251.502 492.463 251.502L486.035 256.725Z" fill="#E5A592"/>
<path fill-rule="evenodd" clip-rule="evenodd" d="M486.473 259.391L487.131 262.751C489.578 261.948 490.966 259.756 491.988 257.127L486.473 259.391Z" fill="#CB816B"/>
<path fill-rule="evenodd" clip-rule="evenodd" d="M496.262 251.027C496.846 249.457 496.116 247.704 494.618 247.119C493.011 246.462 491.002 245.658 489.432 245.037C487.934 244.453 486.473 245.33 485.67 246.79C484.72 248.507 483.551 252.379 483.04 255.3C482.748 256.944 483.369 258.843 484.866 259.428C486.473 260.085 491.842 260.414 493.413 257.601C494.618 255.447 495.385 253.328 496.262 251.027Z" fill="#E5A592"/>
<path fill-rule="evenodd" clip-rule="evenodd" d="M484.063 254.351L486.692 255.337C486.692 255.337 485.962 257.2 484.793 256.542C483.551 255.921 484.063 254.351 484.063 254.351Z" fill="white"/>
<path fill-rule="evenodd" clip-rule="evenodd" d="M487.24 244.416C487.24 244.416 489.066 253.438 492.061 254.643C493.595 255.264 493.157 257.601 494.253 258.697C496.262 260.669 501.083 254.899 501.01 252.086C500.937 247.923 500.06 246.206 495.604 243.686C492.938 242.115 489.797 240.18 487.24 244.416Z" fill="#663A24"/>
<path d="M495.708 257.707C496.497 256.609 496.406 255.195 495.505 254.547C494.605 253.9 493.235 254.265 492.446 255.362C491.657 256.46 491.748 257.874 492.649 258.522C493.55 259.169 494.92 258.804 495.708 257.707Z" fill="#E5A592"/>
<path fill-rule="evenodd" clip-rule="evenodd" d="M486.802 265.052C485.852 267.901 485.925 274.804 483.844 277.616C482.602 279.333 479.972 279.004 479.169 277.069C478.84 276.229 478.438 275.352 478.109 274.512C477.123 272.028 477.087 269.253 478.109 266.805C481.323 259.172 486.583 265.052 486.802 265.052Z" fill="#663A24"/>
<path fill-rule="evenodd" clip-rule="evenodd" d="M502.215 346.902L469.453 344.783L450.753 304.68L483.515 306.799L502.215 346.902Z" fill="#317AC1"/>
<path d="M504.771 335.068L498.964 335.178C497.795 335.214 496.699 335.653 495.823 336.42L492.316 339.561C491.111 340.656 491.33 342.629 492.791 343.396L500.059 342.848C501.666 342.738 503.274 341.971 504.552 340.693L506.67 338.611L504.771 335.068Z" fill="#E5A592"/>
<path d="M110 145C129.882 145 146 128.882 146 109C146 89.1177 129.882 73 110 73C90.1177 73 74 89.1177 74 109C74 128.882 90.1177 145 110 145Z" fill="#77C613"/>
<path fill-rule="evenodd" clip-rule="evenodd" d="M127.192 93.0886C128.247 93.7467 128.57 95.136 127.912 96.1916L110.456 124.192C110.072 124.807 109.415 125.2 108.691 125.248C107.967 125.295 107.264 124.99 106.804 124.43L99.2596 115.245C98.4699 114.284 98.6091 112.865 99.5703 112.075C100.532 111.285 101.951 111.425 102.741 112.386L108.293 119.145L124.089 93.8084C124.747 92.7527 126.136 92.4305 127.192 93.0886Z" fill="white"/>
<g clip-path="url(#clip2_167_2596)">
<path d="M191.507 418.509H151.88V428.715H191.507V418.509Z" fill="#FFAB66"/>
<path d="M190.047 418.509H175.333V428.715H190.047V418.509Z" fill="#EB9149"/>
<path d="M173.952 418.509H167.798V428.715H173.952V418.509Z" fill="#F79F59"/>
<path d="M158.685 418.509H155.312V428.715H158.685V418.509Z" fill="#FFC18F"/>
<path d="M191.507 427.201H151.88V428.715H191.507V427.201Z" fill="#D67B2F"/>
<path d="M191.507 428.774H151.88V438.98H191.507V428.774Z" fill="#FFAB66"/>
<path d="M190.047 428.774H175.333V438.98H190.047V428.774Z" fill="#EB9149"/>
<path d="M173.952 428.774H167.798V438.98H173.952V428.774Z" fill="#F79F59"/>
<path d="M158.685 428.774H155.312V438.98H158.685V428.774Z" fill="#FFC18F"/>
<path d="M191.507 437.486H151.88V439H191.507V437.486Z" fill="#D67B2F"/>
<path d="M189.061 408.559H149.434V418.765H189.061V408.559Z" fill="#FFAB66"/>
<path d="M187.621 408.559H172.906V418.765H187.621V408.559Z" fill="#EB9149"/>
<path d="M171.525 408.559H165.371V418.765H171.525V408.559Z" fill="#F79F59"/>
<path d="M156.239 408.559H152.866V418.765H156.239V408.559Z" fill="#FFC18F"/>
<path d="M189.061 417.27H149.434V418.784H189.061V417.27Z" fill="#D67B2F"/>
<path d="M191.744 398.628H152.116V408.834H191.744V398.628Z" fill="#FFAB66"/>
<path d="M190.304 398.628H175.589V408.834H190.304V398.628Z" fill="#EB9149"/>
<path d="M174.208 398.628H168.054V408.834H174.208V398.628Z" fill="#F79F59"/>
<path d="M158.941 398.628H155.568V408.834H158.941V398.628Z" fill="#FFC18F"/>
<path d="M191.744 407.32H152.116V408.834H191.744V407.32Z" fill="#D67B2F"/>
<path d="M189.909 388.422H150.282V398.628H189.909V388.422Z" fill="#FFAB66"/>
<path d="M188.469 388.422H173.755V398.628H188.469V388.422Z" fill="#EB9149"/>
<path d="M172.374 388.422H166.22V398.628H172.374V388.422Z" fill="#F79F59"/>
<path d="M157.107 388.422H153.734V398.628H157.107V388.422Z" fill="#FFC18F"/>
<path d="M189.909 397.114H150.282V398.628H189.909V397.114Z" fill="#D67B2F"/>
<path d="M188.627 378.334H149V388.54H188.627V378.334Z" fill="#FFAB66"/>
<path d="M187.187 378.334H172.472V388.54H187.187V378.334Z" fill="#EB9149"/>
<path d="M171.092 378.334H164.938V388.54H171.092V378.334Z" fill="#F79F59"/>
<path d="M155.805 378.334H152.432V388.54H155.805V378.334Z" fill="#FFC18F"/>
<path d="M188.627 387.045H149V388.559H188.627V387.045Z" fill="#D67B2F"/>
<path d="M192 368.265H152.373V378.471H192V368.265Z" fill="#FFAB66"/>
<path d="M190.54 368.265H175.826V378.471H190.54V368.265Z" fill="#EB9149"/>
<path d="M174.445 368.265H168.291V378.471H174.445V368.265Z" fill="#F79F59"/>
<path d="M159.178 368.265H155.805V378.471H159.178V368.265Z" fill="#FFC18F"/>
<path d="M192 376.977H152.373V378.491H192V376.977Z" fill="#D67B2F"/>
<path d="M190.501 358H150.874V368.206H190.501V358Z" fill="#FFAB66"/>
<path d="M189.061 358H174.346V368.206H189.061V358Z" fill="#EB9149"/>
<path d="M172.965 358H166.811V368.206H172.965V358Z" fill="#F79F59"/>
<path d="M157.699 358H154.326V368.206H157.699V358Z" fill="#FFC18F"/>
<path d="M190.501 366.692H150.874V368.206H190.501V366.692Z" fill="#D67B2F"/>
<path fill-rule="evenodd" clip-rule="evenodd" d="M157.797 370.271C158.428 368.816 159.375 367.184 160.657 366.338C161.21 365.984 161.21 365.178 160.657 364.784C159.612 364.037 158.271 362.877 157.304 361.343C156.89 360.674 155.923 360.753 155.628 361.461C155.154 362.602 154.345 363.958 152.984 365.158C152.531 365.571 152.59 366.299 153.083 366.633C153.99 367.243 155.213 368.344 156.042 370.271C156.377 371.038 157.462 371.038 157.797 370.271Z" fill="white"/>
</g>
</g>
<g clip-path="url(#clip3_167_2596)">
<path d="M416.836 265.77C475.648 207.024 475.648 111.779 416.836 53.0331C358.025 -5.71265 262.674 -5.71266 203.862 53.0331C145.051 111.779 145.051 207.024 203.862 265.77C262.674 324.516 358.025 324.516 416.836 265.77Z" fill="#E0E0E0"/>
<path d="M395.519 244.477C442.557 197.491 442.557 121.312 395.519 74.3268C348.481 27.3413 272.218 27.3413 225.18 74.3268C178.142 121.312 178.142 197.491 225.18 244.477C272.218 291.462 348.481 291.462 395.519 244.477Z" fill="#FAFAFA"/>
<path d="M396.454 186.438C411.4 138.913 384.947 88.2833 337.369 73.3532C289.791 58.4232 239.105 84.8466 224.158 132.372C209.212 179.897 235.665 230.527 283.243 245.457C330.821 260.387 381.507 233.963 396.454 186.438Z" fill="#E0E0E0"/>
<path d="M365.41 183.926C378.97 153.543 365.305 117.933 334.889 104.389C304.472 90.8438 268.823 104.494 255.263 134.876C241.703 165.259 255.368 200.869 285.784 214.414C316.201 227.958 351.85 214.309 365.41 183.926Z" fill="#FAFAFA"/>
<path d="M324.034 186.256C338.876 178.719 344.791 160.59 337.245 145.765C329.699 130.939 311.551 125.031 296.709 132.569C281.867 140.106 275.952 158.235 283.498 173.06C291.044 187.886 309.193 193.794 324.034 186.256Z" fill="#E0E0E0"/>
<path d="M314.932 163.953L273.179 152.926L283.936 141.898L197.314 70.9248L202.126 66.2593L289.172 136.808L297.523 125.357L314.932 163.953Z" fill="#EBEBEB"/>
<path d="M197.314 70.9248L196.04 71.6318C189.529 75.3077 181.603 75.1663 175.234 71.349L139 49.7177L163.345 45.9004L160.797 20.1691L194.2 42.9314C201.702 48.0211 204.957 57.4937 202.268 66.2593L197.314 70.9248Z" fill="#EBEBEB"/>
<g clip-path="url(#clip4_167_2596)">
<path d="M217.508 85.2781L218.065 85L217.787 85.8344C217.787 86.3906 217.787 86.9468 218.065 87.5031L218.344 88.0593L217.508 87.7812C216.951 87.7812 216.393 87.7812 215.836 88.0593H215L215.279 87.225C215.557 86.6687 215.557 86.1125 215.279 85.5562L215 85L215.836 85.2781C216.393 85.2781 216.951 85.2781 217.508 85.2781Z" fill="#E0E0E0"/>
<path d="M395.019 178.727L396.133 178.449L395.855 179.561C395.576 180.396 395.576 181.508 395.855 182.621L396.133 183.733L395.019 183.455C394.183 183.177 393.068 183.177 391.953 183.455L390.839 183.733L391.117 182.621C391.396 181.786 391.396 180.674 391.117 179.561L390.839 178.449L391.953 178.727C393.068 179.283 394.183 179.283 395.019 178.727Z" fill="#E0E0E0"/>
<path d="M421.771 146.187L423.721 145.63L423.164 147.577C422.607 149.246 422.885 150.915 423.164 152.583L424 154.53L422.049 153.974C420.377 153.418 418.705 153.696 417.033 153.974L415.083 154.53L415.64 152.583C416.197 150.915 415.919 149.246 415.64 147.577L415.083 145.63L417.033 146.187C418.705 146.743 420.377 146.465 421.771 146.187Z" fill="#E0E0E0"/>
<path d="M228.655 184.011L229.769 182.342L230.605 184.289C231.441 185.68 232.556 187.07 233.949 187.905L235.621 189.017L233.671 189.852C232.277 190.686 230.884 191.799 230.048 193.189L228.933 194.858L228.097 192.911C227.261 191.52 226.147 190.13 224.753 189.295L223.081 188.183L225.032 187.349C226.425 186.514 227.819 185.402 228.655 184.011Z" fill="#E0E0E0"/>
<path d="M262.095 112.534C256.521 112.534 250.948 112.256 245.375 112.534C240.637 112.534 235.9 114.481 232.835 118.375C229.491 122.546 228.933 126.996 229.491 132.281C230.884 147.855 235.343 165.099 247.047 176.224C255.128 184.011 265.996 187.349 277.143 187.349C281.601 187.349 281.601 180.396 277.143 180.396C268.783 180.396 260.423 178.171 254.013 172.886C248.44 168.436 244.539 162.04 241.752 155.643C239.244 149.246 237.572 142.571 236.736 135.896C236.457 132.837 235.621 128.943 236.457 125.884C237.851 121.99 241.195 119.765 245.375 119.765C250.948 119.765 256.521 119.765 262.095 119.765C266.553 119.487 266.553 112.534 262.095 112.534Z" fill="#317AC1"/>
<path d="M367.709 119.209C373.004 119.209 378.02 119.209 383.315 119.209C386.38 119.209 389.167 120.043 391.396 122.546C393.904 125.606 393.625 129.499 393.068 133.393C391.675 146.743 387.495 161.205 377.463 170.939C370.496 177.614 361.579 180.117 352.104 180.117C347.645 180.117 347.645 187.07 352.104 187.07C362.136 187.07 371.611 184.289 379.692 178.171C386.38 172.886 391.117 165.377 394.461 157.59C397.527 150.358 399.199 142.571 400.035 134.784C400.592 130.334 400.871 125.884 398.92 121.712C396.691 116.984 392.232 113.646 386.937 112.812C380.807 111.7 373.84 112.534 367.709 112.534C363.251 112.256 362.972 119.209 367.709 119.209Z" fill="#317AC1"/>
<path d="M323.959 220.167L315.041 217.942H314.763H314.484L305.567 219.889C305.567 219.889 304.452 237.689 297.485 250.204H314.484H315.041H332.04C325.073 237.689 323.959 220.167 323.959 220.167Z" fill="#317AC1"/>
<path d="M327.303 221.557H302.501C299.157 221.557 296.649 219.054 296.649 215.717C296.649 212.379 299.157 209.876 302.501 209.876H327.303C330.647 209.876 333.155 212.379 333.155 215.717C333.155 218.776 330.368 221.557 327.303 221.557Z" fill="#317AC1"/>
<path d="M374.119 96.9592L315.32 96.6811H312.255H256.521C256.243 97.7936 250.112 213.214 314.763 211.545H315.041C379.971 213.492 374.397 98.0717 374.119 96.9592Z" fill="#317AC1"/>
<path d="M374.119 96.9592C374.119 96.9592 374.119 97.2373 374.397 98.0717C374.397 98.6279 374.397 99.7404 374.676 101.131C374.676 103.912 374.955 107.806 374.676 112.812C374.397 123.103 373.561 137.843 369.66 155.921C367.431 164.821 364.644 174.555 359.349 184.289C354.333 193.745 346.531 203.48 335.105 208.486C329.532 210.989 323.123 212.379 316.713 212.101C310.304 212.101 303.616 211.823 297.485 209.32C291.076 207.095 285.503 202.923 280.765 197.917C276.028 192.911 272.405 186.792 269.34 180.396C262.931 166.489 259.587 151.471 257.915 137.287C257.079 130.056 256.521 123.103 256.243 116.428C256.243 113.09 255.964 109.753 255.964 106.415C255.964 104.747 255.964 103.078 255.964 101.409C255.964 99.7404 255.964 98.3498 256.243 96.403V95.8467H256.8C291.355 96.1248 320.893 96.403 341.515 96.403C351.825 96.403 359.907 96.6811 365.48 96.6811C368.267 96.6811 370.217 96.6811 371.889 96.6811C372.447 96.6811 373.004 96.6811 373.561 96.6811C373.84 96.9592 374.119 96.9592 374.119 96.9592C374.119 96.9592 373.84 96.9592 373.561 96.9592C373.004 96.9592 372.447 96.9592 371.889 96.9592C370.217 96.9592 368.267 96.9592 365.48 96.9592C359.907 96.9592 351.547 96.9592 341.515 96.9592C320.893 96.9592 291.355 96.9592 256.8 96.9592V96.403C257.079 96.403 257.357 96.6811 257.357 96.6811V96.9592V97.5155V98.6279V101.131C257.357 102.8 257.357 104.468 257.357 106.137C257.357 109.475 257.357 112.812 257.636 116.15C257.915 122.824 258.472 129.778 259.308 137.009C261.259 151.193 264.324 165.933 270.733 179.561C273.799 185.68 277.421 191.799 281.88 196.527C286.339 201.533 291.912 205.426 298.043 207.651C304.173 209.876 310.583 210.433 316.992 210.433C323.401 210.711 329.532 209.32 334.827 206.817C345.973 202.089 353.497 192.633 358.513 183.455C363.529 173.999 366.595 164.265 368.824 155.643C373.004 137.843 373.84 122.824 374.397 112.812C374.676 107.806 374.676 103.634 374.676 101.131C374.676 99.7404 374.676 98.9061 374.676 98.0717C374.119 97.2373 374.119 96.9592 374.119 96.9592Z" fill="#263238"/>
<g opacity="0.3">
<path d="M374.119 96.9592C374.119 104.19 374.397 110.865 374.119 117.54C372.168 162.318 359.349 200.698 329.532 209.876L312.812 211.823C312.812 211.823 346.531 196.527 354.612 166.211C362.972 135.896 369.66 98.3498 369.66 98.3498L374.119 96.9592Z" fill="black"/>
</g>
<path d="M352.104 263.554L278.815 263.276C278.815 253.263 286.896 245.198 296.928 245.198H333.991C344.023 245.476 352.104 253.541 352.104 263.554Z" fill="#317AC1"/>
<path d="M364.152 262.576L265.783 262.308L265.653 309.588L364.023 309.857L364.152 262.576Z" fill="#384454"/>
<path d="M349.629 274.775L279.962 274.585L279.899 297.669L349.565 297.859L349.629 274.775Z" fill="#F5F8FC"/>
<path d="M316.156 125.884L324.238 142.293L342.072 144.796L328.975 157.311L332.04 175.111L316.156 166.768L299.994 175.111L303.059 157.311L290.24 144.796L308.075 142.293L316.156 125.884Z" fill="white"/>
<path d="M296.092 202.089C295.814 201.811 295.535 201.811 295.256 201.811C294.42 201.533 293.584 201.255 292.191 200.698C291.076 200.142 289.404 199.308 288.011 198.195C286.618 197.083 284.946 195.414 283.274 193.467C281.88 191.52 280.208 189.295 278.815 186.792C278.258 185.402 277.422 184.289 276.586 182.899C276.028 181.508 275.192 180.117 274.635 178.727C271.848 172.886 269.619 166.211 267.668 158.98C265.718 151.749 264.603 144.796 263.767 138.399C262.931 132.002 262.374 126.162 262.095 121.434C261.816 116.706 261.538 112.812 261.259 110.031C261.259 108.64 261.259 107.528 260.98 106.972C260.98 106.693 260.98 106.415 260.98 106.137C260.98 105.859 260.98 105.859 260.98 105.859C260.98 105.859 260.98 105.859 260.98 106.137C260.98 106.415 260.98 106.693 260.98 106.972C260.98 107.806 260.98 108.64 261.259 110.031C261.538 112.812 261.816 116.706 262.095 121.434C262.652 126.162 263.21 132.002 264.046 138.399C264.882 144.796 266.275 151.749 267.947 158.98C269.898 166.211 272.127 172.886 274.914 178.727C275.471 180.117 276.307 181.508 276.864 182.899C277.7 184.289 278.258 185.402 279.094 186.792C280.487 189.295 281.88 191.52 283.552 193.467C284.946 195.414 286.618 196.805 288.011 198.195C289.404 199.308 291.076 200.142 292.191 200.977C293.306 201.533 294.42 201.811 295.256 202.089C295.535 201.811 295.814 201.811 296.092 202.089C296.092 202.089 296.092 201.811 296.092 202.089Z" fill="white"/>
<path d="M301.944 212.101C301.944 212.101 301.387 212.101 300.829 212.658C300.272 213.214 299.715 214.048 299.436 215.161C299.436 216.273 299.715 217.386 299.993 218.22C300.272 219.054 300.551 219.333 300.551 219.333C300.551 219.333 300.272 219.054 299.993 218.22C299.715 217.386 299.157 216.551 299.436 215.161C299.436 213.77 300.272 212.936 300.829 212.379C301.108 212.101 301.387 212.101 301.665 212.101C301.944 212.101 301.944 212.101 301.944 212.101Z" fill="white"/>
<path d="M298.879 247.423C298.879 247.423 298.6 247.423 298.043 247.423C297.485 247.423 296.649 247.423 295.535 247.701C293.584 247.979 290.797 248.813 288.011 250.76C285.503 252.707 283.552 254.932 282.716 256.601C282.159 257.435 281.88 258.269 281.601 258.826C281.323 259.382 281.323 259.66 281.323 259.66C281.323 259.66 281.323 259.66 281.323 259.382C281.323 259.104 281.323 259.104 281.601 258.826C281.88 258.269 282.159 257.435 282.716 256.601C283.552 254.654 285.503 252.429 288.011 250.482C290.519 248.535 293.584 247.701 295.535 247.423C296.649 247.145 297.485 247.145 298.043 247.145C298.321 247.423 298.6 247.423 298.879 247.423Z" fill="white"/>
<path d="M295.535 246.31C308.632 245.754 323.401 246.31 336.499 245.754L295.535 246.31Z" fill="#FF725E"/>
<path d="M336.499 245.754C336.499 246.31 327.303 246.866 316.156 246.866C310.861 246.866 306.124 246.866 301.665 246.866C298.043 246.866 295.813 246.866 295.535 246.588C295.535 246.032 304.731 245.476 315.877 245.476C321.172 245.476 325.909 245.476 330.368 245.476C334.269 245.476 336.499 245.476 336.499 245.754Z" fill="#263238"/>
</g>
</g>
<path opacity="0.3" d="M144.283 206.395H121.346V252.525H144.283V206.395Z" fill="#317AC1"/>
<path opacity="0.5" d="M174.963 178.382H152.026V252.525H174.963V178.382Z" fill="#317AC1"/>
<path d="M207.03 144.853H184.094V252.525H207.03V144.853Z" fill="#317AC1"/>
<path d="M140.083 173.451C139.863 173.451 139.644 173.378 139.498 173.195C139.206 172.867 139.243 172.392 139.571 172.1C158.198 155.81 187.563 130.974 187.856 130.718C188.184 130.426 188.659 130.499 188.951 130.828C189.243 131.157 189.17 131.631 188.842 131.924C188.549 132.179 159.221 157.015 140.594 173.268C140.448 173.378 140.265 173.451 140.083 173.451Z" fill="#5A69C7"/>
<path d="M187.417 136.343C187.344 136.343 187.271 136.343 187.198 136.306C186.796 136.197 186.541 135.758 186.65 135.357L187.6 131.997L183.984 132.362C183.546 132.398 183.18 132.106 183.144 131.668C183.107 131.23 183.4 130.864 183.838 130.828L188.549 130.353C188.805 130.316 189.061 130.426 189.207 130.609C189.389 130.791 189.426 131.083 189.353 131.303L188.111 135.758C188.075 136.087 187.746 136.343 187.417 136.343Z" fill="#5A69C7"/>
<path d="M439.785 65.0015C450.004 59.3308 453.691 46.4494 448.021 36.2301C442.35 26.0108 429.469 22.3233 419.249 27.994C409.03 33.6647 405.343 46.546 411.013 56.7654C416.684 66.9847 429.565 70.6721 439.785 65.0015Z" fill="#E1A624"/>
<path fill-rule="evenodd" clip-rule="evenodd" d="M438.44 37.5731C438.889 37.8197 439.053 38.3838 438.807 38.8331L429.837 55.1748C429.681 55.4579 429.39 55.6398 429.067 55.6552C428.745 55.6705 428.438 55.5171 428.256 55.2501L424.312 49.4506C424.024 49.0268 424.134 48.4496 424.558 48.1614C424.982 47.8732 425.559 47.9831 425.847 48.4069L428.939 52.9536L437.18 37.9401C437.426 37.4908 437.99 37.3265 438.44 37.5731Z" fill="white"/>
<path fill-rule="evenodd" clip-rule="evenodd" d="M429.513 18.0685C425.058 18.0685 420.86 19.0807 417.117 20.9015C416.851 21.0306 416.532 20.9202 416.403 20.6548C416.273 20.3895 416.384 20.0698 416.649 19.9407C420.536 18.0498 424.895 17 429.513 17C445.815 17 459.019 30.2042 459.019 46.5059C459.019 62.8075 445.815 76.0117 429.513 76.0117C413.211 76.0117 400.007 62.7814 400.007 46.5059C400.007 42.5177 400.794 38.6846 402.239 35.2169C402.353 34.9446 402.665 34.8158 402.938 34.9293C403.21 35.0427 403.339 35.3555 403.225 35.6279C401.835 38.9649 401.076 42.6583 401.076 46.5059C401.076 62.1919 413.802 74.9432 429.513 74.9432C445.224 74.9432 457.95 62.2174 457.95 46.5059C457.95 30.7944 445.224 18.0685 429.513 18.0685Z" fill="#384454"/>
<path d="M170.071 300.571L182.142 314.605L141.072 349.932L129 335.899L170.071 300.571Z" fill="#E1A624"/>
<path d="M215.824 294.145L229.614 310.174L187.645 346.281L173.855 330.252L215.824 294.145Z" fill="#E1A624"/>
<path d="M178.85 310.843L200.419 335.323L185.814 348.192L164.244 323.712L178.85 310.843Z" fill="#E1A624"/>
<path d="M202.865 288.174L239.021 288L234.162 323.201L202.865 288.174Z" fill="#E1A624"/>
</g>
<defs>
<clipPath id="clip0_167_2596">
<rect width="600" height="465" fill="white"/>
</clipPath>
<clipPath id="clip1_167_2596">
<rect width="591.063" height="454.72" fill="white" transform="translate(11.3)"/>
</clipPath>
<clipPath id="clip2_167_2596">
<rect width="43" height="81" fill="white" transform="translate(149 358)"/>
</clipPath>
<clipPath id="clip3_167_2596">
<rect width="322" height="301" fill="white" transform="translate(139 9)"/>
</clipPath>
<clipPath id="clip4_167_2596">
<rect width="209" height="225" fill="white" transform="translate(215 85)"/>
</clipPath>
</defs>
</svg>
